<svg width="192" height="191" viewBox="0 0 192 191" fill="none" xmlns="http://www.w3.org/2000/svg">
<g filter="url(#filter0_d_589_3)">
<ellipse cx="96" cy="85.5" rx="74" ry="73.5" fill="#FDFDFD"/>
</g>
<path d="M94.9255 48.8214C94.669 48.8612 93.0442 49.1793 91.3105 49.5292C83.995 51.0164 71.3619 53.4818 68.2444 54.0465C67.9413 54.0942 67.9257 54.1499 68.1667 54.3646C68.5632 54.7384 68.1356 54.6112 76.2286 56.7584C78.2187 57.2913 82.8211 58.516 86.4516 59.4863C94.358 61.5938 94.4591 61.6177 95.8273 61.6813C97.4444 61.7529 97.2578 61.7926 105.693 59.5658C107.854 58.9932 111.197 58.1104 113.117 57.6015C122.33 55.1679 124.398 54.6191 124.499 54.5873C124.654 54.5237 124.452 54.3089 124.079 54.1419C123.729 53.9908 123.729 53.9908 115.138 52.2889C103.135 49.911 99.5823 49.2191 98.4472 49.0203C97.1723 48.8055 95.6407 48.718 94.9255 48.8214Z" fill="#974973"/>
<path d="M81.0265 52.6535C81.0573 53.0147 81.1881 54.4518 81.319 55.8574C81.5576 58.4646 81.6499 58.9672 81.9886 59.6582C82.6505 60.9932 85.2367 62.6502 88.3155 63.7261C94.0575 65.7207 100.561 65.226 105.795 62.4068C107.681 61.3859 108.859 60.4357 109.282 59.5797C109.713 58.708 109.813 57.9934 109.952 54.601C109.998 53.5016 110.052 52.52 110.075 52.4179C110.098 52.3079 110.075 52.2451 110.006 52.2451C109.875 52.2451 107.635 52.7712 105.988 53.1953C103.486 53.8314 100.623 54.6402 97.7674 55.5119C96.7206 55.826 96.5513 55.8574 95.8047 55.8574C95.2967 55.8574 94.7194 55.7946 94.2884 55.7082C93.7265 55.5826 86.7376 53.6272 82.0887 52.2844C81.5576 52.1352 81.0881 52.0095 81.0496 52.0095C80.988 52.0095 80.988 52.2215 81.0265 52.6535Z" fill="#974973"/>
<path d="M108.602 61.8654C107.759 62.5558 105.736 63.7317 104.459 64.278C97.7014 67.1609 89.7728 66.4857 83.8511 62.5255C82.4448 61.5847 82.3687 61.6227 82.1407 63.2614C81.9582 64.5435 81.9506 66.9712 82.1331 67.9196C82.688 70.8708 83.9195 73.2757 85.9492 75.3772C87.1882 76.6594 88.1613 77.3877 89.636 78.1236C93.6269 80.1189 98.9101 79.8913 102.848 77.5546C107.911 74.5503 110.48 68.3217 109.096 62.4344C109.005 62.0551 108.906 61.7213 108.884 61.7061C108.853 61.6909 108.724 61.7592 108.602 61.8654Z" fill="#974973"/>
<path d="M94.8598 81.1278C94.3658 81.2059 94.1563 81.3151 93.812 81.6352C93.3554 82.0645 93.1832 82.4625 93.1832 83.0713C93.1832 83.9221 93.6473 84.609 94.4482 84.9446C95.1742 85.249 95.3838 85.9749 95.1293 87.2862C94.9272 88.3087 94.755 88.7692 93.9542 90.4474C93.1159 92.2036 92.9512 92.7577 93.0111 93.5461C93.0635 94.1627 93.2506 94.6622 94.508 97.3941C96.035 100.743 95.9002 100.477 96.1248 100.477C96.3867 100.477 96.7161 100.235 96.9481 99.8762C97.2176 99.4547 99.0663 95.3335 99.2834 94.6622C99.4331 94.2095 99.463 93.9598 99.463 93.2183C99.463 92.1723 99.3732 91.8914 98.5573 90.3303C97.7041 88.7068 97.4496 87.7233 97.4945 86.2325C97.517 85.2178 97.5544 85.1476 98.1532 84.9212C99.478 84.4139 99.8447 82.7357 98.8567 81.7132C98.3852 81.2215 98.0708 81.1356 96.5065 81.1044C95.788 81.081 95.047 81.0966 94.8598 81.1278Z" fill="#974973"/>
<path d="M106.503 84.458C105.978 84.6244 105.446 85.0406 105.075 85.5702C104.944 85.7518 104.018 87.4466 103.022 89.323C100.289 94.4831 100.135 94.7631 98.2897 98.2284C97.3479 99.9989 96.5219 101.489 96.4524 101.535C96.2749 101.679 95.9352 101.656 95.6033 101.489C95.0166 101.194 94.7155 100.763 93.658 98.758C93.0944 97.6988 92.4228 96.4201 92.1527 95.9207C91.8902 95.4213 90.5316 92.8488 89.1421 90.2082C86.3553 84.9346 86.3553 84.9271 85.4985 84.6093C84.5567 84.2537 82.9665 84.4353 81.5847 85.0481C75.5403 87.719 70.924 93.9762 70.0672 100.642C69.8742 102.17 70.0672 102.594 71.0398 102.723C71.8735 102.836 77.9797 103.252 81.0752 103.411C86.4634 103.684 87.9224 103.714 95.858 103.714C103.794 103.714 105.253 103.684 110.641 103.411C114.431 103.214 120.174 102.806 120.807 102.685C121.61 102.526 121.788 102.193 121.672 101.081C121.348 97.9333 120.19 94.816 118.36 92.1149C116.322 89.1187 113.651 86.7732 110.502 85.2221C108.811 84.3899 107.491 84.1402 106.503 84.458Z" fill="#974973"/>
<path d="M85.0554 103.827C82.2641 104.443 80.572 106.867 80.1133 110.913C79.884 112.883 80.0105 115.29 80.4217 116.912C81.1413 119.757 82.6753 121.452 85.1345 122.117C85.7354 122.279 85.9964 122.295 87.5462 122.295C89.0881 122.295 89.5468 122.262 91.5789 121.995C96.2126 121.387 99.1699 121.2 104.428 121.168C108.762 121.144 108.943 121.127 109.821 120.673C110.715 120.211 111.308 119.32 111.308 118.436C111.308 118.039 111.284 117.966 111.165 117.966C111.086 117.966 109.473 118.112 107.583 118.29C105.693 118.46 102.341 118.776 100.119 118.979C97.9048 119.182 95.5168 119.401 94.8209 119.466C87.1587 120.195 86.7792 120.211 85.8857 119.928C84.1065 119.368 82.6358 117.641 82.1613 115.55C81.7581 113.799 81.932 111.383 82.5725 109.713C83.1181 108.294 84.0433 107.151 85.0317 106.672C85.5298 106.437 85.6326 106.413 86.3601 106.413C87.0718 106.413 87.1983 106.437 87.6253 106.648C88.7244 107.199 89.6021 108.521 89.8393 109.988C90.0686 111.367 89.6891 112.68 88.843 113.458C88.4318 113.847 88.0839 113.993 87.6095 113.993C86.8504 113.985 86.2731 113.531 85.8461 112.607C85.6089 112.08 85.3717 111.058 85.3717 110.548C85.3717 110.296 85.3559 110.272 85.0396 110.223C84.8498 110.199 84.6047 110.159 84.4861 110.134C84.3596 110.11 84.2647 110.102 84.2647 110.126C84.2647 110.142 84.154 110.742 84.0195 111.448C83.7033 113.093 83.6242 114.739 83.8219 115.534C84.2172 117.139 85.1345 118.112 86.5499 118.42C87.5778 118.639 87.9416 118.614 99.1699 117.52C101.969 117.252 103.914 117.066 107.196 116.75C109.086 116.571 110.81 116.385 111.023 116.336C111.853 116.166 112.138 115.801 112.272 114.731C112.367 113.985 112.296 112.064 112.138 110.953C111.869 109.105 111.063 106.454 110.588 105.862C110.114 105.27 110.612 105.335 103.005 104.792C100.807 104.638 96.4973 104.321 93.4213 104.103C87.6332 103.681 85.941 103.624 85.0554 103.827Z" fill="#974973"/>
<path d="M127.172 103.981C125.169 104.134 121.688 104.377 119.428 104.538C117.167 104.699 113.968 104.925 112.309 105.038C110.651 105.151 109.29 105.256 109.274 105.272C109.267 105.28 109.36 105.668 109.486 106.128C109.767 107.121 110.064 108.614 110.252 109.953C110.354 110.704 110.385 111.503 110.385 113.553C110.393 116.45 110.385 116.385 110.894 116.531C111.05 116.579 112.27 116.724 113.6 116.853C125.92 118.08 133.273 118.814 134.29 118.919C136.676 119.178 137.129 119.121 137.536 118.484C137.974 117.798 138.357 115.263 138.357 113.044C138.357 109.404 137.575 106.765 136.011 105.143C135.338 104.441 134.587 104.013 133.703 103.82C132.89 103.642 131.302 103.683 127.172 103.981Z" fill="#974973"/>
<path d="M90.5296 105.354L90 105.386L90.3478 106.251C91.1304 108.223 91.5573 110.382 91.6205 112.702C91.6995 115.386 91.3122 117.819 90.4664 120.058L90.2451 120.648L95.1144 120.672C97.7942 120.689 100.142 120.672 100.332 120.648C100.806 120.575 100.972 120.349 101.28 119.331C101.905 117.253 102.118 115.709 102.118 113.26C102.118 110.77 101.905 109.274 101.249 107.108C100.94 106.097 100.743 105.742 100.34 105.507C100.071 105.337 99.9522 105.337 95.5571 105.329C93.0829 105.329 90.8142 105.337 90.5296 105.354Z" fill="#974973"/>
<path d="M110.516 118.319C109.524 118.647 108.997 119.651 109.423 120.401C109.663 120.831 110.043 120.975 111.019 121C118.986 121.219 122.334 121.421 126.402 121.919C130.734 122.442 132.749 122.425 134.407 121.835C135.19 121.548 135.934 121.143 135.934 120.983C135.934 120.688 135.585 120.62 132.602 120.275C126.937 119.617 121.566 119.077 115.359 118.538C112.073 118.251 110.895 118.192 110.516 118.319Z" fill="#974973"/>
<defs>
<filter id="filter0_d_589_3" x="0" y="0" width="192" height="191" filterUnits="userSpaceOnUse" color-interpolation-filters="sRGB">
<feFlood flood-opacity="0" result="BackgroundImageFix"/>
<feColorMatrix in="SourceAlpha" type="matrix" values="0 0 0 0 0 0 0 0 0 0 0 0 0 0 0 0 0 0 127 0" result="hardAlpha"/>
<feMorphology radius="4" operator="dilate" in="SourceAlpha" result="effect1_dropShadow_589_3"/>
<feOffset dy="10"/>
<feGaussianBlur stdDeviation="9"/>
<feComposite in2="hardAlpha" operator="out"/>
<feColorMatrix type="matrix" values="0 0 0 0 0 0 0 0 0 0 0 0 0 0 0 0 0 0 0.12 0"/>
<feBlend mode="normal" in2="BackgroundImageFix" result="effect1_dropShadow_589_3"/>
<feBlend mode="normal" in="SourceGraphic" in2="effect1_dropShadow_589_3" result="shape"/>
</filter>
</defs>
</svg>
