<svg width="236" height="235" viewBox="0 0 236 235" fill="none" xmlns="http://www.w3.org/2000/svg">
<g filter="url(#filter0_d_589_2)">
<ellipse cx="118" cy="107.5" rx="96" ry="95.5" fill="#974973"/>
</g>
<path d="M114.985 60.132C114.652 60.1837 112.541 60.597 110.288 61.0517C100.783 62.9841 84.3683 66.1875 80.3176 66.9212C79.9237 66.9832 79.9035 67.0555 80.2166 67.3345C80.7318 67.8202 80.1762 67.6549 90.6917 70.4449C93.2777 71.1373 99.2577 72.7287 103.975 73.9894C114.248 76.7277 114.379 76.7587 116.157 76.8414C118.258 76.9344 118.016 76.9861 128.976 74.0927C131.784 73.3487 136.128 72.2016 138.623 71.5403C150.593 68.3782 153.28 67.6652 153.411 67.6239C153.613 67.5412 153.35 67.2622 152.866 67.0452C152.411 66.8489 152.411 66.8489 141.249 64.6375C125.652 61.5477 121.036 60.6487 119.561 60.3904C117.905 60.1114 115.915 59.9977 114.985 60.132Z" fill="white"/>
<path d="M96.926 65.1115C96.966 65.5809 97.136 67.4481 97.306 69.2746C97.6161 72.6622 97.7361 73.3152 98.1761 74.2131C99.0362 75.9477 102.397 78.1007 106.397 79.4986C113.858 82.0903 122.309 81.4475 129.109 77.7844C131.56 76.4579 133.09 75.2233 133.64 74.1111C134.2 72.9785 134.33 72.0499 134.51 67.642C134.57 66.2135 134.64 64.938 134.67 64.8054C134.7 64.6625 134.67 64.5809 134.58 64.5809C134.41 64.5809 131.5 65.2645 129.359 65.8155C126.109 66.642 122.389 67.693 118.678 68.8256C117.318 69.2337 117.098 69.2746 116.128 69.2746C115.468 69.2746 114.718 69.1929 114.158 69.0807C113.428 68.9174 104.347 66.3767 98.3062 64.6319C97.6161 64.438 97.006 64.2748 96.956 64.2748C96.876 64.2748 96.876 64.5503 96.926 65.1115Z" fill="white"/>
<path d="M132.756 77.0807C131.66 77.9777 129.032 79.5056 127.373 80.2154C118.592 83.9613 108.29 83.084 100.596 77.9383C98.7683 76.7159 98.6696 76.7652 98.3732 78.8945C98.1362 80.5604 98.1263 83.7149 98.3634 84.9471C99.0844 88.7817 100.685 91.9065 103.322 94.6371C104.932 96.3031 106.196 97.2494 108.112 98.2056C113.298 100.798 120.162 100.502 125.279 97.4663C131.857 93.5626 135.196 85.4695 133.398 77.82C133.279 77.3271 133.151 76.8934 133.121 76.8737C133.082 76.8539 132.914 76.9427 132.756 77.0807Z" fill="white"/>
<path d="M114.9 102.109C114.258 102.211 113.986 102.352 113.538 102.768C112.945 103.326 112.721 103.843 112.721 104.634C112.721 105.74 113.324 106.632 114.365 107.068C115.308 107.464 115.581 108.407 115.25 110.111C114.987 111.44 114.764 112.038 113.723 114.218C112.634 116.5 112.42 117.22 112.498 118.245C112.566 119.046 112.809 119.695 114.443 123.245C116.427 127.595 116.252 127.251 116.544 127.251C116.884 127.251 117.312 126.936 117.613 126.47C117.963 125.922 120.366 120.567 120.648 119.695C120.842 119.107 120.881 118.782 120.881 117.819C120.881 116.46 120.764 116.095 119.704 114.066C118.596 111.957 118.265 110.679 118.323 108.742C118.352 107.423 118.401 107.332 119.179 107.038C120.901 106.379 121.377 104.198 120.093 102.87C119.481 102.231 119.072 102.119 117.04 102.079C116.106 102.048 115.143 102.069 114.9 102.109Z" fill="white"/>
<path d="M130.029 106.436C129.347 106.652 128.655 107.193 128.173 107.881C128.003 108.117 126.799 110.319 125.505 112.757C121.954 119.462 121.754 119.826 119.357 124.329C118.133 126.629 117.06 128.566 116.969 128.625C116.739 128.812 116.297 128.782 115.866 128.566C115.104 128.182 114.713 127.622 113.338 125.017C112.606 123.64 111.734 121.979 111.383 121.33C111.041 120.681 109.276 117.339 107.471 113.908C103.85 107.055 103.85 107.046 102.736 106.633C101.513 106.171 99.4465 106.407 97.6511 107.203C89.7974 110.673 83.7993 118.804 82.6859 127.465C82.4351 129.451 82.6859 130.001 83.9497 130.168C85.033 130.316 92.9669 130.856 96.9891 131.063C103.99 131.417 105.886 131.456 116.197 131.456C126.508 131.456 128.404 131.417 135.405 131.063C140.33 130.807 147.792 130.276 148.615 130.119C149.658 129.913 149.889 129.48 149.738 128.035C149.317 123.945 147.812 119.895 145.435 116.385C142.787 112.492 139.317 109.444 135.224 107.429C133.028 106.348 131.313 106.023 130.029 106.436Z" fill="white"/>
<path d="M102.161 131.603C98.5346 132.404 96.3359 135.553 95.74 140.81C95.4421 143.369 95.6065 146.498 96.1407 148.605C97.0757 152.302 99.0689 154.504 102.264 155.367C103.045 155.578 103.384 155.599 105.398 155.599C107.401 155.599 107.997 155.557 110.638 155.209C116.659 154.419 120.501 154.177 127.333 154.135C132.964 154.103 133.2 154.082 134.341 153.492C135.502 152.892 136.272 151.733 136.272 150.585C136.272 150.069 136.241 149.974 136.087 149.974C135.984 149.974 133.888 150.164 131.433 150.395C128.977 150.617 124.621 151.028 121.734 151.291C118.857 151.554 115.754 151.839 114.85 151.923C104.894 152.871 104.401 152.892 103.24 152.523C100.929 151.796 99.0175 149.553 98.4011 146.835C97.8771 144.56 98.1031 141.421 98.9353 139.251C99.6443 137.407 100.846 135.922 102.131 135.3C102.778 134.995 102.911 134.963 103.857 134.963C104.781 134.963 104.946 134.995 105.501 135.269C106.929 135.985 108.069 137.702 108.377 139.609C108.675 141.399 108.182 143.106 107.083 144.117C106.549 144.623 106.097 144.812 105.48 144.812C104.494 144.802 103.744 144.212 103.189 143.011C102.881 142.326 102.572 140.999 102.572 140.336C102.572 140.009 102.552 139.977 102.141 139.914C101.894 139.883 101.576 139.83 101.422 139.798C101.257 139.767 101.134 139.756 101.134 139.788C101.134 139.809 100.99 140.588 100.816 141.505C100.405 143.643 100.302 145.782 100.559 146.814C101.072 148.9 102.264 150.164 104.103 150.564C105.439 150.848 105.912 150.817 120.501 149.395C124.138 149.047 126.666 148.805 130.93 148.394C133.385 148.162 135.625 147.92 135.902 147.857C136.981 147.636 137.351 147.162 137.526 145.771C137.649 144.802 137.556 142.305 137.351 140.862C137.002 138.461 135.954 135.016 135.337 134.247C134.721 133.478 135.368 133.562 125.484 132.856C122.628 132.656 117.028 132.246 113.032 131.961C105.511 131.413 103.312 131.34 102.161 131.603Z" fill="white"/>
<path d="M156.884 131.803C154.282 132.003 149.759 132.317 146.822 132.527C143.885 132.737 139.728 133.03 137.573 133.177C135.418 133.324 133.65 133.46 133.629 133.481C133.619 133.492 133.741 133.995 133.904 134.593C134.27 135.883 134.656 137.822 134.9 139.563C135.032 140.538 135.073 141.576 135.073 144.24C135.083 148.004 135.073 147.921 135.733 148.109C135.937 148.172 137.522 148.361 139.25 148.529C155.258 150.123 164.812 151.077 166.133 151.213C169.233 151.549 169.823 151.475 170.351 150.647C170.92 149.756 171.418 146.463 171.418 143.579C171.418 138.85 170.402 135.421 168.369 133.313C167.495 132.401 166.519 131.845 165.371 131.594C164.314 131.363 162.251 131.415 156.884 131.803Z" fill="white"/>
<path d="M109.273 133.587L108.585 133.629L109.037 134.753C110.054 137.315 110.608 140.12 110.691 143.134C110.793 146.622 110.29 149.783 109.191 152.693L108.903 153.46L115.23 153.491C118.712 153.512 121.763 153.491 122.009 153.46C122.626 153.365 122.841 153.071 123.242 151.748C124.053 149.048 124.331 147.042 124.331 143.859C124.331 140.624 124.053 138.681 123.201 135.866C122.8 134.553 122.543 134.091 122.02 133.786C121.67 133.566 121.516 133.566 115.806 133.555C112.591 133.555 109.643 133.566 109.273 133.587Z" fill="white"/>
<path d="M135.242 150.433C133.953 150.86 133.269 152.164 133.822 153.139C134.135 153.697 134.628 153.884 135.897 153.916C146.248 154.201 150.598 154.464 155.884 155.111C161.513 155.79 164.131 155.768 166.286 155.001C167.303 154.629 168.269 154.103 168.269 153.895C168.269 153.511 167.816 153.423 163.94 152.974C156.579 152.12 149.601 151.419 141.535 150.718C137.266 150.345 135.736 150.268 135.242 150.433Z" fill="white"/>
<defs>
<filter id="filter0_d_589_2" x="0" y="0" width="236" height="235" filterUnits="userSpaceOnUse" color-interpolation-filters="sRGB">
<feFlood flood-opacity="0" result="BackgroundImageFix"/>
<feColorMatrix in="SourceAlpha" type="matrix" values="0 0 0 0 0 0 0 0 0 0 0 0 0 0 0 0 0 0 127 0" result="hardAlpha"/>
<feMorphology radius="4" operator="dilate" in="SourceAlpha" result="effect1_dropShadow_589_2"/>
<feOffset dy="10"/>
<feGaussianBlur stdDeviation="9"/>
<feComposite in2="hardAlpha" operator="out"/>
<feColorMatrix type="matrix" values="0 0 0 0 0 0 0 0 0 0 0 0 0 0 0 0 0 0 0.12 0"/>
<feBlend mode="normal" in2="BackgroundImageFix" result="effect1_dropShadow_589_2"/>
<feBlend mode="normal" in="SourceGraphic" in2="effect1_dropShadow_589_2" result="shape"/>
</filter>
</defs>
</svg>
