<svg width="228" height="228" viewBox="0 0 228 228" fill="none" xmlns="http://www.w3.org/2000/svg">
<g filter="url(#filter0_d_590_6)">
<circle cx="114" cy="104" r="96" fill="white"/>
</g>
<path d="M150.344 57.1339C149.839 57.3539 148.495 58.604 144.564 62.5143L140.795 66.2445L140.734 70.9948L140.663 75.7451L139.592 76.8152L138.521 77.8852L137.207 76.7851C131.003 71.6148 122.696 68.0146 114.47 66.9445C111.641 66.5745 105.486 66.5745 102.667 66.9445C95.2901 67.9046 87.8626 70.9448 81.7792 75.4951C78.6364 77.8552 75.2814 81.1654 72.947 84.2356C64.893 94.8163 62.0837 108.447 65.3073 121.358C68.7735 135.259 78.8789 146.659 92.3899 151.92C97.4123 153.88 103.314 155 108.599 155C120.928 154.99 133.054 149.75 141.361 140.819C146.242 135.589 149.637 129.628 151.587 122.898C152.881 118.428 153.285 115.238 153.194 110.147C153.123 105.857 152.76 102.947 151.921 99.7466C150.223 93.3362 146.979 87.1458 142.725 82.1955L141.917 81.2454L142.998 80.1754L144.079 79.1053L148.899 79.0353L153.72 78.9653L157.449 75.2551C161.481 71.2348 162.38 70.2547 162.784 69.4247C163.098 68.7947 163.077 68.4146 162.673 67.7346C162.036 66.6545 161.359 66.5045 156.842 66.4245L153.447 66.3645L153.396 62.8043C153.346 58.684 153.295 58.364 152.568 57.634C151.971 57.0539 151.022 56.8339 150.344 57.1339ZM148.778 67.3546C148.808 68.5946 148.889 69.6547 148.95 69.7947C149.132 70.2047 149.93 70.8748 150.314 70.9348C150.496 70.9648 151.557 71.0048 152.659 71.0348C153.76 71.0648 154.71 71.1248 154.761 71.1748C154.821 71.2348 154.275 71.8848 153.326 72.8849L151.79 74.495H148.566H145.342V71.3148V68.1246L146.909 66.6045C147.768 65.7645 148.536 65.0944 148.606 65.1244C148.697 65.1544 148.738 65.7445 148.778 67.3546ZM110.933 71.2948C115.097 71.5348 117.876 72.0649 121.534 73.2949C124.596 74.325 127.284 75.6251 130.295 77.5252C132.519 78.9253 135.136 80.8754 135.136 81.1354C135.136 81.1954 133.236 83.1255 130.912 85.4257L126.698 89.5959L125.637 88.8259C121.423 85.7657 117.704 84.2156 112.702 83.4456C111.065 83.1855 107.427 83.1355 105.648 83.3356C100.414 83.9356 95.9672 85.6757 91.8341 88.7359C90.2576 89.906 87.5595 92.5661 86.4075 94.0962C83.2647 98.2765 81.4558 102.787 80.8697 107.947C80.7181 109.267 80.7484 112.357 80.9202 113.797C81.5467 119.068 83.3758 123.518 86.6298 127.698C87.5898 128.928 90.3486 131.659 91.5814 132.599C94.411 134.749 96.8059 135.999 100.171 137.099C103.132 138.069 105.345 138.349 109.367 138.269C110.842 138.229 112.409 138.159 112.853 138.099C115.784 137.699 118.118 136.939 121.392 135.299C126.758 132.609 130.972 128.358 133.721 122.848C135.065 120.158 135.793 117.868 136.268 114.848C136.53 113.167 136.581 109.307 136.359 107.647C135.682 102.417 133.984 98.1865 130.932 94.1162L130.073 92.9562L134.348 88.7259L138.622 84.4956L138.996 84.9257C139.673 85.6757 141.047 87.5058 141.937 88.8459C145.524 94.2862 147.525 99.5866 148.344 105.847C148.606 107.867 148.606 113.747 148.344 115.728C147.424 122.608 144.736 129.148 140.552 134.649C134.216 142.989 124.283 148.7 113.763 150.04C107.568 150.84 100.737 150.09 95.0476 147.99C82.4057 143.329 73.0986 133.139 69.8447 120.388C68.9655 116.948 68.6926 114.637 68.6926 110.747C68.6926 107.597 68.7735 106.597 69.208 104.097C70.7845 94.9863 75.7765 86.3557 82.7998 80.5954C88.1153 76.2251 95.0375 72.9349 101.182 71.8548C103.294 71.4848 107.932 71.0648 108.811 71.1648C108.922 71.1748 109.882 71.2348 110.933 71.2948ZM111.338 87.8958C113.338 88.0859 116.269 88.8659 118.159 89.726C119.917 90.516 123.211 92.5561 123.211 92.8561C123.211 92.9262 121.493 94.6963 119.392 96.8064L115.562 100.647L114.349 100.077C111.944 98.9465 110.6 98.6465 108.255 98.7265C106.315 98.7865 105.204 99.0465 103.566 99.8266C101.626 100.767 100.05 102.037 98.7967 103.697C97.099 105.937 96.4624 108.087 96.5634 111.277C96.6038 112.617 96.6645 113.137 96.8666 113.907C97.4628 116.178 98.6451 118.028 100.585 119.768C103.081 122.008 105.689 122.918 109.205 122.768C112.56 122.638 114.905 121.608 117.269 119.228C119.2 117.288 120.331 115.138 120.746 112.597C120.978 111.247 120.887 109.277 120.544 107.967C120.301 107.047 120.109 106.557 119.26 104.717L118.927 103.987L122.767 100.187C124.889 98.1065 126.688 96.3964 126.769 96.3964C127.082 96.3964 128.891 99.2565 129.83 101.227C131.771 105.307 132.367 110.217 131.498 114.998C130.255 121.798 125.647 127.948 119.351 131.189C111.449 135.259 101.869 134.489 94.7141 129.208C89.6008 125.428 86.2256 119.538 85.5283 113.177C85.3868 111.927 85.3868 109.567 85.5283 108.317C86.2053 102.137 89.4997 96.3364 94.4918 92.5161C97.4931 90.226 101.545 88.5059 105.123 88.0058C105.537 87.9458 105.992 87.8758 106.133 87.8558C106.709 87.7758 110.307 87.8058 111.338 87.8958ZM111.034 103.647C111.54 103.797 111.984 103.937 112.025 103.967C112.075 103.997 111.095 105.037 109.852 106.287C106.861 109.277 106.335 109.947 106.335 110.797C106.335 111.637 107.174 112.667 108.094 112.957C109.165 113.287 109.67 112.967 113.045 109.737C114.349 108.497 115.45 107.467 115.491 107.467C115.541 107.457 115.713 107.897 115.875 108.447C116.117 109.287 116.168 109.637 116.178 110.647C116.188 112.047 116.037 112.727 115.44 113.947C114.49 115.898 113.076 117.168 111.034 117.858C110.287 118.118 110.105 118.138 108.66 118.138C107.215 118.138 107.033 118.118 106.285 117.858C103.839 117.028 102.061 115.178 101.363 112.727C101.07 111.667 101.07 109.987 101.374 108.857C102.091 106.177 104.072 104.237 106.841 103.497C107.932 103.207 109.761 103.267 111.034 103.647Z" fill="#974973"/>
<defs>
<filter id="filter0_d_590_6" x="0" y="0" width="228" height="228" filterUnits="userSpaceOnUse" color-interpolation-filters="sRGB">
<feFlood flood-opacity="0" result="BackgroundImageFix"/>
<feColorMatrix in="SourceAlpha" type="matrix" values="0 0 0 0 0 0 0 0 0 0 0 0 0 0 0 0 0 0 127 0" result="hardAlpha"/>
<feOffset dy="10"/>
<feGaussianBlur stdDeviation="9"/>
<feComposite in2="hardAlpha" operator="out"/>
<feColorMatrix type="matrix" values="0 0 0 0 0 0 0 0 0 0 0 0 0 0 0 0 0 0 0.12 0"/>
<feBlend mode="normal" in2="BackgroundImageFix" result="effect1_dropShadow_590_6"/>
<feBlend mode="normal" in="SourceGraphic" in2="effect1_dropShadow_590_6" result="shape"/>
</filter>
</defs>
</svg>
