<svg width="184" height="184" viewBox="0 0 184 184" fill="none" xmlns="http://www.w3.org/2000/svg">
<g filter="url(#filter0_d_590_4)">
<circle cx="92" cy="82" r="74" fill="#974973"/>
</g>
<path d="M119.93 40.4065C119.544 40.5762 118.518 41.5407 115.516 44.5578L112.638 47.4359L112.592 51.1011L112.538 54.7662L111.72 55.5919L110.902 56.4175L109.899 55.5687C105.161 51.5795 98.8183 48.8017 92.5373 47.976C90.3768 47.6905 85.6777 47.6905 83.5248 47.976C77.8921 48.7168 72.2207 51.0625 67.5756 54.5733C65.1758 56.3943 62.6141 58.9484 60.8316 61.3172C54.6819 69.4809 52.5368 79.9981 54.9982 89.9596C57.6449 100.685 65.361 109.481 75.6775 113.54C79.5124 115.053 84.0187 115.917 88.0542 115.917C97.4679 115.909 106.727 111.866 113.07 104.975C116.797 100.94 119.39 96.3409 120.879 91.1479C121.866 87.6988 122.175 85.2373 122.106 81.3098C122.052 77.9996 121.774 75.7542 121.133 73.285C119.837 68.339 117.36 63.5627 114.112 59.7432L113.494 59.0101L114.32 58.1845L115.146 57.3589L118.826 57.3049L122.507 57.2508L125.354 54.3881C128.433 51.2863 129.12 50.5301 129.428 49.8896C129.667 49.4035 129.652 49.1103 129.343 48.5856C128.857 47.7523 128.34 47.6365 124.891 47.5748L122.299 47.5285L122.26 44.7815C122.221 41.6025 122.183 41.3556 121.627 40.7923C121.172 40.3447 120.447 40.175 119.93 40.4065ZM118.734 48.2924C118.757 49.2492 118.819 50.0671 118.865 50.1751C119.004 50.4915 119.613 51.0085 119.907 51.0548C120.045 51.0779 120.856 51.1088 121.697 51.1319C122.538 51.1551 123.263 51.2014 123.302 51.24C123.348 51.2863 122.931 51.7878 122.206 52.5594L121.033 53.8017H118.572H116.11V51.348V48.8865L117.306 47.7137C117.962 47.0655 118.548 46.5485 118.602 46.5717C118.672 46.5948 118.703 47.0501 118.734 48.2924ZM89.8367 51.3326C93.0157 51.5177 95.1377 51.9267 97.9309 52.8758C100.269 53.6705 102.321 54.6736 104.621 56.1397C106.318 57.22 108.317 58.7246 108.317 58.9252C108.317 58.9715 106.866 60.4608 105.091 62.2355L101.874 65.4531L101.064 64.859C97.846 62.4978 95.0065 61.3018 91.187 60.7077C89.937 60.5071 87.1592 60.4685 85.8011 60.6228C81.8041 61.0858 78.409 62.4284 75.2531 64.7895C74.0494 65.6923 71.9892 67.7448 71.1096 68.9254C68.7098 72.1507 67.3286 75.6307 66.8811 79.6122C66.7654 80.6308 66.7885 83.0151 66.9197 84.1262C67.3981 88.1926 68.7947 91.6263 71.2793 94.8517C72.0123 95.8007 74.1189 97.9072 75.0602 98.6326C77.2207 100.292 79.0495 101.256 81.619 102.105C83.8798 102.853 85.5696 103.069 88.6407 103.008C89.7672 102.977 90.9632 102.923 91.3027 102.876C93.5404 102.568 95.3228 101.981 97.8229 100.716C101.92 98.6403 105.138 95.3609 107.237 91.1093C108.263 89.0337 108.818 87.2667 109.181 84.9364C109.382 83.6401 109.42 80.6616 109.251 79.3808C108.734 75.3452 107.437 72.0813 105.107 68.9408L104.451 68.0457L107.715 64.7818L110.979 61.5179L111.264 61.8497C111.781 62.4284 112.831 63.8404 113.51 64.8744C116.249 69.072 117.777 73.1615 118.402 77.9919C118.602 79.5505 118.602 84.0876 118.402 85.6154C117.7 90.9241 115.647 95.9705 112.453 100.214C107.615 106.65 100.03 111.056 91.9972 112.09C87.2672 112.707 82.0511 112.128 77.7069 110.508C68.054 106.912 60.9474 99.0492 58.4628 89.2111C57.7915 86.5568 57.5831 84.7744 57.5831 81.7728C57.5831 79.3422 57.6449 78.5706 57.9767 76.6415C59.1804 69.6121 62.9922 62.9531 68.3549 58.5086C72.4136 55.1366 77.6992 52.598 82.3906 51.7647C84.0032 51.4792 87.545 51.1551 88.2163 51.2322C88.3011 51.24 89.0342 51.2863 89.8367 51.3326ZM90.1453 64.1414C91.6731 64.288 93.9108 64.8898 95.3537 65.5534C96.6963 66.163 99.2118 67.7371 99.2118 67.9686C99.2118 68.0226 97.9 69.3883 96.2951 71.0165L93.3707 73.9795L92.4447 73.5396C90.6083 72.6677 89.582 72.4362 87.7919 72.498C86.3104 72.5443 85.4616 72.7449 84.2116 73.3467C82.7301 74.0721 81.5264 75.052 80.5696 76.3329C79.2732 78.0613 78.7871 79.7203 78.8643 82.1817C78.8952 83.2157 78.9415 83.6169 79.0958 84.2111C79.551 85.9626 80.4538 87.3901 81.9353 88.7327C83.8412 90.4612 85.832 91.1633 88.5172 91.0476C91.079 90.9473 92.8691 90.1525 94.6747 88.3161C96.1485 86.8191 97.0127 85.1602 97.329 83.2003C97.5065 82.1586 97.4371 80.6385 97.1747 79.6277C96.9895 78.9178 96.8429 78.5397 96.1948 77.1199L95.9401 76.5567L98.8723 73.6245C100.493 72.0196 101.866 70.7001 101.928 70.7001C102.167 70.7001 103.548 72.9069 104.266 74.427C105.747 77.5752 106.203 81.3638 105.539 85.0521C104.59 90.2991 101.071 95.0446 96.2642 97.5446C90.2302 100.685 82.9153 100.091 77.4522 96.0168C73.5479 93.1001 70.9707 88.5553 70.4382 83.6478C70.3302 82.6833 70.3302 80.8623 70.4382 79.8977C70.9552 75.1292 73.4707 70.6538 77.2825 67.7062C79.5742 65.9392 82.6684 64.612 85.3999 64.2262C85.7162 64.1799 86.0635 64.1259 86.1715 64.1105C86.6113 64.0488 89.3583 64.0719 90.1453 64.1414ZM89.9138 76.2943C90.2996 76.41 90.6391 76.5181 90.67 76.5412C90.7086 76.5644 89.9601 77.3668 89.011 78.3314C86.727 80.6385 86.3258 81.1555 86.3258 81.8114C86.3258 82.4595 86.9663 83.2543 87.6684 83.478C88.4863 83.7327 88.8721 83.4858 91.4493 80.9934C92.4447 80.0366 93.2858 79.2419 93.3166 79.2419C93.3552 79.2342 93.4864 79.5737 93.6099 79.9981C93.795 80.6462 93.8336 80.9163 93.8413 81.6956C93.8491 82.7759 93.7333 83.3006 93.2781 84.2419C92.5527 85.7466 91.4725 86.7265 89.9138 87.259C89.3428 87.4596 89.2039 87.475 88.1005 87.475C86.9971 87.475 86.8582 87.4596 86.2872 87.259C84.4199 86.6185 83.0619 85.191 82.5295 83.3006C82.3057 82.4827 82.3057 81.1863 82.5372 80.3144C83.085 78.2465 84.5974 76.7496 86.7116 76.1786C87.545 75.9548 88.9416 76.0011 89.9138 76.2943Z" fill="#FDFDFD"/>
<defs>
<filter id="filter0_d_590_4" x="0" y="0" width="184" height="184" filterUnits="userSpaceOnUse" color-interpolation-filters="sRGB">
<feFlood flood-opacity="0" result="BackgroundImageFix"/>
<feColorMatrix in="SourceAlpha" type="matrix" values="0 0 0 0 0 0 0 0 0 0 0 0 0 0 0 0 0 0 127 0" result="hardAlpha"/>
<feOffset dy="10"/>
<feGaussianBlur stdDeviation="9"/>
<feComposite in2="hardAlpha" operator="out"/>
<feColorMatrix type="matrix" values="0 0 0 0 0 0 0 0 0 0 0 0 0 0 0 0 0 0 0.12 0"/>
<feBlend mode="normal" in2="BackgroundImageFix" result="effect1_dropShadow_590_4"/>
<feBlend mode="normal" in="SourceGraphic" in2="effect1_dropShadow_590_4" result="shape"/>
</filter>
</defs>
</svg>
